<mxfile host="Electron" agent="Mozilla/5.0 (Windows NT 10.0; Win64; x64) AppleWebKit/537.36 (KHTML, like Gecko) draw.io/28.0.6 Chrome/138.0.7204.100 Electron/37.2.3 Safari/537.36" version="28.0.6">
  <diagram name="PÃ¡gina-1" id="YbEsryXh_7t6vPxzy6sB">
    <mxGraphModel dx="1188" dy="701" grid="1" gridSize="10" guides="1" tooltips="1" connect="1" arrows="1" fold="1" page="1" pageScale="1" pageWidth="827" pageHeight="1169" math="0" shadow="0">
      <root>
        <mxCell id="0" />
        <mxCell id="1" parent="0" />
        <mxCell id="z4DpApWJzl8NDFuBkj6w-7" value="" style="rounded=1;whiteSpace=wrap;html=1;fillColor=#d5e8d4;strokeColor=#82b366;" vertex="1" parent="1">
          <mxGeometry x="100" y="20" width="120" height="60" as="geometry" />
        </mxCell>
        <mxCell id="z4DpApWJzl8NDFuBkj6w-8" value="" style="rounded=1;whiteSpace=wrap;html=1;fillColor=#fff2cc;strokeColor=#d6b656;" vertex="1" parent="1">
          <mxGeometry x="390" y="20" width="120" height="60" as="geometry" />
        </mxCell>
        <mxCell id="z4DpApWJzl8NDFuBkj6w-9" value="" style="rounded=1;whiteSpace=wrap;html=1;fillColor=#e1d5e7;strokeColor=#9673a6;" vertex="1" parent="1">
          <mxGeometry x="680" y="20" width="120" height="60" as="geometry" />
        </mxCell>
        <mxCell id="z4DpApWJzl8NDFuBkj6w-11" value="" style="endArrow=none;dashed=1;html=1;rounded=0;entryX=0.5;entryY=1;entryDx=0;entryDy=0;" edge="1" parent="1" target="z4DpApWJzl8NDFuBkj6w-7">
          <mxGeometry width="50" height="50" relative="1" as="geometry">
            <mxPoint x="160" y="840" as="sourcePoint" />
            <mxPoint x="500" y="160" as="targetPoint" />
          </mxGeometry>
        </mxCell>
        <mxCell id="z4DpApWJzl8NDFuBkj6w-12" value="" style="endArrow=none;dashed=1;html=1;rounded=0;entryX=0.5;entryY=1;entryDx=0;entryDy=0;" edge="1" parent="1" target="z4DpApWJzl8NDFuBkj6w-8">
          <mxGeometry width="50" height="50" relative="1" as="geometry">
            <mxPoint x="450" y="760" as="sourcePoint" />
            <mxPoint x="500" y="160" as="targetPoint" />
          </mxGeometry>
        </mxCell>
        <mxCell id="z4DpApWJzl8NDFuBkj6w-13" value="" style="endArrow=none;dashed=1;html=1;rounded=0;entryX=0.5;entryY=1;entryDx=0;entryDy=0;" edge="1" parent="1" target="z4DpApWJzl8NDFuBkj6w-9">
          <mxGeometry width="50" height="50" relative="1" as="geometry">
            <mxPoint x="740" y="840" as="sourcePoint" />
            <mxPoint x="500" y="160" as="targetPoint" />
          </mxGeometry>
        </mxCell>
        <mxCell id="z4DpApWJzl8NDFuBkj6w-14" value="WORKER" style="text;strokeColor=none;fillColor=none;align=left;verticalAlign=middle;spacingLeft=4;spacingRight=4;overflow=hidden;points=[[0,0.5],[1,0.5]];portConstraint=eastwest;rotatable=0;whiteSpace=wrap;html=1;" vertex="1" parent="1">
          <mxGeometry x="127.5" y="35" width="65" height="30" as="geometry" />
        </mxCell>
        <mxCell id="z4DpApWJzl8NDFuBkj6w-15" value="SERVIDOR A" style="text;strokeColor=none;fillColor=none;align=left;verticalAlign=middle;spacingLeft=4;spacingRight=4;overflow=hidden;points=[[0,0.5],[1,0.5]];portConstraint=eastwest;rotatable=0;whiteSpace=wrap;html=1;" vertex="1" parent="1">
          <mxGeometry x="410" y="35" width="85" height="30" as="geometry" />
        </mxCell>
        <mxCell id="z4DpApWJzl8NDFuBkj6w-17" value="SERVIDOR B" style="text;html=1;align=center;verticalAlign=middle;whiteSpace=wrap;rounded=0;" vertex="1" parent="1">
          <mxGeometry x="700" y="35" width="80" height="30" as="geometry" />
        </mxCell>
        <mxCell id="z4DpApWJzl8NDFuBkj6w-18" value="" style="endArrow=classic;html=1;rounded=0;" edge="1" parent="1">
          <mxGeometry width="50" height="50" relative="1" as="geometry">
            <mxPoint x="160" y="120" as="sourcePoint" />
            <mxPoint x="450" y="120" as="targetPoint" />
          </mxGeometry>
        </mxCell>
        <mxCell id="z4DpApWJzl8NDFuBkj6w-20" value="{&quot;WORKER&quot;: &quot;ALIVE&quot;}" style="text;html=1;align=center;verticalAlign=middle;whiteSpace=wrap;rounded=0;" vertex="1" parent="1">
          <mxGeometry x="240" y="90" width="130" height="30" as="geometry" />
        </mxCell>
        <mxCell id="z4DpApWJzl8NDFuBkj6w-21" value="" style="endArrow=classic;html=1;rounded=0;" edge="1" parent="1">
          <mxGeometry width="50" height="50" relative="1" as="geometry">
            <mxPoint x="450" y="160" as="sourcePoint" />
            <mxPoint x="160" y="160" as="targetPoint" />
          </mxGeometry>
        </mxCell>
        <mxCell id="z4DpApWJzl8NDFuBkj6w-22" value="{&quot;TASK&quot;: &quot;QUERY&quot;, &quot;USER&quot;: &quot;...&quot;}" style="text;html=1;align=center;verticalAlign=middle;whiteSpace=wrap;rounded=0;" vertex="1" parent="1">
          <mxGeometry x="207.5" y="130" width="195" height="30" as="geometry" />
        </mxCell>
        <mxCell id="z4DpApWJzl8NDFuBkj6w-23" value="" style="endArrow=classic;html=1;rounded=0;" edge="1" parent="1">
          <mxGeometry width="50" height="50" relative="1" as="geometry">
            <mxPoint x="160" y="200" as="sourcePoint" />
            <mxPoint x="450" y="200" as="targetPoint" />
          </mxGeometry>
        </mxCell>
        <mxCell id="z4DpApWJzl8NDFuBkj6w-24" value="{&quot;STATUS&quot;: &quot;OK&quot;, &quot;SALDO&quot;: 99.99, ...}&lt;div&gt;&lt;br&gt;&lt;/div&gt;" style="text;html=1;align=center;verticalAlign=middle;whiteSpace=wrap;rounded=0;" vertex="1" parent="1">
          <mxGeometry x="200" y="180" width="210" height="20" as="geometry" />
        </mxCell>
        <mxCell id="z4DpApWJzl8NDFuBkj6w-25" value="Erro" style="shape=umlFrame;whiteSpace=wrap;html=1;pointerEvents=0;" vertex="1" parent="1">
          <mxGeometry x="140" y="220" width="330" height="130" as="geometry" />
        </mxCell>
        <mxCell id="z4DpApWJzl8NDFuBkj6w-29" value="" style="endArrow=open;endFill=1;endSize=12;html=1;rounded=0;" edge="1" parent="1">
          <mxGeometry width="160" relative="1" as="geometry">
            <mxPoint x="160" y="280" as="sourcePoint" />
            <mxPoint x="450" y="280" as="targetPoint" />
          </mxGeometry>
        </mxCell>
        <mxCell id="z4DpApWJzl8NDFuBkj6w-30" value="{&quot;STATUS&quot;: &quot;NOK&quot;, &quot;TASK&quot;: &quot;QUERY&quot;, &quot;ERROR&quot;: &quot;User not found&quot;}" style="text;html=1;align=center;verticalAlign=middle;whiteSpace=wrap;rounded=0;" vertex="1" parent="1">
          <mxGeometry x="185" y="240" width="240" height="40" as="geometry" />
        </mxCell>
        <mxCell id="z4DpApWJzl8NDFuBkj6w-31" value="" style="endArrow=open;endFill=1;endSize=12;html=1;rounded=0;" edge="1" parent="1">
          <mxGeometry width="160" relative="1" as="geometry">
            <mxPoint x="450" y="420" as="sourcePoint" />
            <mxPoint x="160" y="420" as="targetPoint" />
          </mxGeometry>
        </mxCell>
        <mxCell id="z4DpApWJzl8NDFuBkj6w-32" value="&lt;div&gt;{&quot;TASK&quot;: &quot;REDIRECT&quot;,&lt;/div&gt;&lt;div&gt;&amp;nbsp;&quot;TARGET_MASTER&quot;: {&quot;IP&quot;: &quot;...&quot;, &quot;PORT&quot;: ...},&lt;/div&gt;&lt;div&gt;&amp;nbsp;&quot;HOME_MASTER&quot;: {&quot;IP&quot;: &quot;...&quot;, &quot;PORT&quot;: ...}&lt;span style=&quot;background-color: transparent; color: light-dark(rgb(0, 0, 0), rgb(255, 255, 255));&quot;&gt;}&lt;/span&gt;&lt;/div&gt;&lt;div&gt;&lt;br&gt;&lt;/div&gt;" style="text;html=1;align=center;verticalAlign=middle;whiteSpace=wrap;rounded=0;" vertex="1" parent="1">
          <mxGeometry x="150" y="380" width="300" height="30" as="geometry" />
        </mxCell>
        <mxCell id="z4DpApWJzl8NDFuBkj6w-33" value="" style="endArrow=classic;html=1;rounded=0;" edge="1" parent="1">
          <mxGeometry width="50" height="50" relative="1" as="geometry">
            <mxPoint x="450" y="440" as="sourcePoint" />
            <mxPoint x="740" y="440" as="targetPoint" />
          </mxGeometry>
        </mxCell>
        <mxCell id="z4DpApWJzl8NDFuBkj6w-34" value="{&quot;SERVER&quot;: &quot;ALIVE&quot;, &quot;TASK&quot;: &quot;REQUEST&quot;}" style="text;html=1;align=center;verticalAlign=middle;whiteSpace=wrap;rounded=0;" vertex="1" parent="1">
          <mxGeometry x="480" y="410" width="240" height="30" as="geometry" />
        </mxCell>
        <mxCell id="z4DpApWJzl8NDFuBkj6w-35" value="" style="endArrow=classic;html=1;rounded=0;" edge="1" parent="1">
          <mxGeometry width="50" height="50" relative="1" as="geometry">
            <mxPoint x="740" y="480" as="sourcePoint" />
            <mxPoint x="450" y="480" as="targetPoint" />
          </mxGeometry>
        </mxCell>
        <mxCell id="z4DpApWJzl8NDFuBkj6w-36" value="{&quot;SERVER&quot;: &quot;ALIVE&quot;, &quot;TASK&quot;: &quot;RECIEVE&quot;}" style="text;html=1;align=center;verticalAlign=middle;whiteSpace=wrap;rounded=0;" vertex="1" parent="1">
          <mxGeometry x="475" y="450" width="250" height="30" as="geometry" />
        </mxCell>
        <mxCell id="z4DpApWJzl8NDFuBkj6w-37" value="" style="endArrow=classic;html=1;rounded=0;" edge="1" parent="1">
          <mxGeometry width="50" height="50" relative="1" as="geometry">
            <mxPoint x="450" y="520" as="sourcePoint" />
            <mxPoint x="740" y="520" as="targetPoint" />
          </mxGeometry>
        </mxCell>
        <mxCell id="z4DpApWJzl8NDFuBkj6w-38" value="{&quot;TASK&quot;: &quot;WORKER_REQUEST&quot;, &quot;WORKERS_NEEDED&quot;: 5}" style="text;html=1;align=center;verticalAlign=middle;whiteSpace=wrap;rounded=0;" vertex="1" parent="1">
          <mxGeometry x="502.5" y="480" width="195" height="40" as="geometry" />
        </mxCell>
        <mxCell id="z4DpApWJzl8NDFuBkj6w-39" value="" style="endArrow=classic;html=1;rounded=0;" edge="1" parent="1">
          <mxGeometry width="50" height="50" relative="1" as="geometry">
            <mxPoint x="450" y="600" as="sourcePoint" />
            <mxPoint x="740" y="600" as="targetPoint" />
          </mxGeometry>
        </mxCell>
        <mxCell id="z4DpApWJzl8NDFuBkj6w-40" value="&lt;div&gt;{&quot;TASK&quot;: &quot;WORKER_RESPONSE&quot;,&lt;/div&gt;&lt;div&gt;&amp;nbsp;&quot;STATUS&quot;: &quot;ACK&quot;,&lt;/div&gt;&lt;div&gt;&amp;nbsp;&quot;MASTER_UUID&quot;: &quot;UUID&quot;,&lt;/div&gt;&lt;div&gt;&amp;nbsp;&quot;WORKERS&quot;: [&quot;WORKER_UUID&quot;: ...]}&lt;/div&gt;&lt;div&gt;&lt;br&gt;&lt;/div&gt;" style="text;html=1;align=center;verticalAlign=middle;whiteSpace=wrap;rounded=0;" vertex="1" parent="1">
          <mxGeometry x="455" y="530" width="290" height="80" as="geometry" />
        </mxCell>
        <mxCell id="z4DpApWJzl8NDFuBkj6w-41" value="Resposta negativa" style="shape=umlFrame;whiteSpace=wrap;html=1;pointerEvents=0;" vertex="1" parent="1">
          <mxGeometry x="435" y="610" width="330" height="130" as="geometry" />
        </mxCell>
        <mxCell id="z4DpApWJzl8NDFuBkj6w-42" value="" style="endArrow=classic;html=1;rounded=0;" edge="1" parent="1">
          <mxGeometry width="50" height="50" relative="1" as="geometry">
            <mxPoint x="450" y="710" as="sourcePoint" />
            <mxPoint x="740" y="710" as="targetPoint" />
          </mxGeometry>
        </mxCell>
        <mxCell id="z4DpApWJzl8NDFuBkj6w-43" value="&lt;div&gt;{&quot;TASK&quot;: &quot;WORKER_RESPONSE&quot;,&lt;/div&gt;&lt;div&gt;&amp;nbsp;&quot;STATUS&quot;: &quot;NACK&quot;,&lt;/div&gt;&lt;div&gt;&amp;nbsp;&quot;WORKERS&quot;: []}&lt;/div&gt;&lt;div&gt;&lt;br&gt;&lt;/div&gt;" style="text;html=1;align=center;verticalAlign=middle;whiteSpace=wrap;rounded=0;" vertex="1" parent="1">
          <mxGeometry x="455" y="635" width="290" height="80" as="geometry" />
        </mxCell>
        <mxCell id="z4DpApWJzl8NDFuBkj6w-44" value="" style="endArrow=classic;html=1;rounded=0;" edge="1" parent="1">
          <mxGeometry width="50" height="50" relative="1" as="geometry">
            <mxPoint x="160" y="820" as="sourcePoint" />
            <mxPoint x="740" y="820" as="targetPoint" />
          </mxGeometry>
        </mxCell>
        <mxCell id="z4DpApWJzl8NDFuBkj6w-45" value="&lt;div&gt;{&quot;WORKER&quot;: &quot;ALIVE&quot;, &quot;WORKER_UUID&quot;:&quot;...&quot;}&lt;/div&gt;&lt;div&gt;&lt;br&gt;&lt;/div&gt;" style="text;html=1;align=center;verticalAlign=middle;whiteSpace=wrap;rounded=0;" vertex="1" parent="1">
          <mxGeometry x="315" y="790" width="270" height="30" as="geometry" />
        </mxCell>
      </root>
    </mxGraphModel>
  </diagram>
</mxfile>
